<svg version="1.1" id="Layer_1" xmlns="http://www.w3.org/2000/svg" xmlns:xlink="http://www.w3.org/1999/xlink" x="0px" y="0px"
	 width="100%" viewBox="0 0 320 336" enable-background="new 0 0 320 336" xml:space="preserve">
<path fill="#000000" opacity="1.000000" stroke="none" 
	d="
M1.000000,330.497925 
	C9.050999,331.405304 14.680590,328.541962 19.490847,321.675476 
	C27.700563,309.956360 36.792248,298.855804 44.565796,286.803375 
	C46.062515,284.482819 46.746006,282.104797 46.864998,279.324005 
	C48.154202,249.195251 47.723152,219.052368 47.775528,188.912735 
	C47.840923,151.277557 46.464882,113.658318 46.492710,76.018394 
	C46.497082,70.097893 45.928368,64.298714 46.466904,58.221020 
	C47.342075,48.344135 46.055023,38.286343 45.897987,28.301495 
	C45.843361,24.828133 44.116867,24.138260 41.172874,24.184908 
	C37.765617,24.238897 32.957352,24.985638 33.269363,19.953560 
	C33.591789,14.753467 38.571304,16.248409 42.059681,16.184292 
	C43.030731,16.166447 44.024010,16.670210 45.040318,15.910517 
	C46.115749,14.728529 45.589775,13.144772 45.771297,11.699819 
	C46.122459,8.904481 47.405632,6.875284 50.453815,6.850604 
	C53.785042,6.823632 55.488007,9.107669 55.245380,12.018497 
	C54.907738,16.069262 56.729694,16.718510 60.169632,16.788120 
	C75.313576,17.094589 90.496590,17.642376 105.598587,17.434341 
	C139.572754,16.966330 173.546814,16.973946 207.519287,16.627823 
	C211.335449,16.588940 215.145584,16.072947 218.962936,15.994913 
	C221.750092,15.937940 224.567490,16.354420 224.502243,20.123150 
	C224.439941,23.722595 221.916245,24.346882 218.959000,24.292629 
	C209.642654,24.121714 200.321793,23.630152 191.022797,23.497421 
	C160.371323,23.059910 129.710373,23.324089 99.054184,23.135426 
	C95.124367,23.111240 92.331284,24.840549 89.760529,27.207827 
	C77.224899,38.751236 66.288506,51.739319 55.834469,65.151123 
	C53.820705,67.734650 54.212307,70.836555 54.125408,73.801559 
	C52.944496,114.093925 53.457939,154.397659 53.363621,194.697113 
	C53.298889,222.352493 53.393208,250.008270 53.296822,277.663483 
	C53.285725,280.847198 54.170490,283.364471 56.037342,285.914917 
	C67.686165,301.829285 80.792595,316.406952 95.374008,329.682617 
	C96.866859,331.041809 98.346481,331.655670 100.288139,331.537689 
	C154.042252,328.270691 207.848907,330.608215 261.628113,330.012238 
	C278.107147,329.829620 294.582123,329.289581 311.061035,329.076294 
	C316.878143,329.000977 317.978027,330.342224 318.025269,336.583069 
	C212.333328,337.000000 106.666664,337.000000 1.000000,336.993286 
	C1.000000,334.989655 1.000000,332.992737 1.000000,330.497925 
M54.776035,312.876129 
	C54.899479,317.683716 55.085583,322.490784 55.124184,327.299042 
	C55.149635,330.469452 56.620411,331.700378 59.746529,331.634552 
	C65.717178,331.508789 71.692871,331.638336 77.664948,331.554108 
	C79.224182,331.532135 81.052170,331.797913 82.299522,329.299652 
	C73.347404,318.075470 64.255440,306.675934 54.674770,294.663666 
	C54.185390,301.052124 54.215824,306.498108 54.776035,312.876129 
M77.305763,23.243586 
	C71.478455,23.275787 65.644012,23.495878 59.826317,23.275005 
	C55.861004,23.124458 54.460110,24.757689 54.531406,28.539707 
	C54.628632,33.697113 54.401192,38.859791 54.404499,44.020149 
	C54.406437,47.040020 54.056076,50.129906 55.003548,53.226353 
	C65.060440,43.088665 74.703598,33.368034 84.775658,23.215055 
	C82.430511,23.215055 80.327850,23.215055 77.305763,23.243586 
M32.064346,331.573151 
	C34.882915,331.584045 37.710545,331.456360 40.517826,331.639893 
	C44.291351,331.886566 45.982254,330.484497 45.841377,326.516388 
	C45.665146,321.552399 46.108212,316.566498 45.934254,311.602325 
	C45.769653,306.905334 47.769608,302.224365 45.900581,296.498932 
	C38.319130,307.752075 30.912775,318.129944 25.005205,330.278625 
	C27.704575,330.820679 29.456783,331.172516 32.064346,331.573151 
z"/>
</svg>