<svg version="1.1" id="Layer_1" xmlns="http://www.w3.org/2000/svg" xmlns:xlink="http://www.w3.org/1999/xlink" x="0px" y="0px"
	 width="100%" viewBox="0 0 320 336" enable-background="new 0 0 320 336" xml:space="preserve">
<path fill="#000000" opacity="1.000000" stroke="none" 
	d="
M1.000000,329.494751 
	C10.100149,331.469086 15.781656,327.309753 20.945766,320.068481 
	C29.065777,308.682343 37.818184,297.744812 45.474907,286.014191 
	C46.862110,283.888916 47.802280,281.750122 47.922272,279.092957 
	C49.034897,254.454056 48.815701,229.801392 48.834675,205.151169 
	C48.848145,187.651474 49.359974,170.130203 48.671379,152.657104 
	C47.647408,126.673698 48.497540,100.680954 47.533607,74.725891 
	C47.323318,69.063568 46.870441,63.681915 47.418388,57.893745 
	C48.383213,47.702007 47.109318,37.305470 46.908653,26.992044 
	C46.845966,23.769953 45.113003,23.159830 42.401031,23.168461 
	C38.867157,23.179707 33.754440,24.128283 34.359077,18.667593 
	C34.907009,13.719038 39.873093,15.191775 43.416462,15.282947 
	C44.222977,15.303699 45.030483,15.286003 45.648563,15.286003 
	C47.248501,13.724759 46.556820,11.936522 46.814758,10.348387 
	C47.239975,7.730329 48.636700,6.042356 51.365814,5.876761 
	C54.265461,5.700820 56.124836,7.683624 55.960117,10.086144 
	C55.550346,16.062822 59.267857,15.726501 63.279083,15.823472 
	C77.260925,16.161480 91.282440,16.608801 105.224129,16.429800 
	C139.874710,15.984910 174.525711,15.968737 209.175095,15.633458 
	C212.994690,15.596499 216.809128,15.126722 220.629700,15.053998 
	C223.423508,15.000817 225.643723,16.001472 225.482742,19.351095 
	C225.339478,22.331676 223.323441,23.111162 220.699844,23.292101 
	C211.505554,23.926191 211.859528,23.996103 210.931778,33.019173 
	C209.905090,43.004795 210.615463,52.997551 210.034378,62.970047 
	C209.897247,65.323479 210.110840,68.071938 206.903427,68.298134 
	C203.358383,68.548134 203.898270,65.585487 203.600891,63.339203 
	C202.085266,51.890564 202.852402,40.381084 202.724854,28.899773 
	C202.683075,25.138321 201.865814,23.158602 197.558990,22.838612 
	C182.242783,21.700638 166.918106,22.481379 151.601425,22.261599 
	C134.938400,22.022497 118.267204,22.348761 101.604362,22.103302 
	C97.253677,22.039211 93.837402,23.278978 90.783081,26.124638 
	C78.313431,37.742390 67.276657,50.639614 56.851421,64.084724 
	C54.954639,66.530937 55.214993,69.431007 55.136631,72.237000 
	C54.015728,112.375458 54.295006,152.524689 54.265831,192.671112 
	C54.245487,220.667938 54.358639,248.664917 54.296059,276.661560 
	C54.288967,279.832550 55.109283,282.364990 57.003082,284.915436 
	C68.753571,300.740265 81.608391,315.549255 96.289459,328.746124 
	C97.798157,330.102295 99.307945,330.666260 101.233765,330.541534 
	C136.176193,328.278290 171.169739,328.652405 206.146805,328.820953 
	C232.307861,328.946991 258.468994,329.367249 284.623657,328.721802 
	C293.939301,328.491882 303.243896,327.682098 312.574829,327.953979 
	C318.688354,328.132111 320.115051,330.259644 318.146667,336.634277 
	C256.645782,337.000000 195.291550,337.000000 133.095337,336.834961 
	C121.775185,336.458588 111.297394,336.225159 100.818596,336.053070 
	C98.513390,336.015167 96.128830,335.659271 94.000000,337.000000 
	C93.250000,337.000000 92.500000,337.000000 91.026840,336.771973 
	C80.964485,335.179504 71.575951,336.272400 62.213799,336.009766 
	C59.789223,335.941711 57.240559,335.500885 55.000000,337.000000 
	C53.285641,337.000000 51.571285,337.000000 49.066116,336.799133 
	C39.501869,335.750793 30.734440,335.296722 22.000000,337.000000 
	C15.120221,337.000000 8.240442,337.000000 1.000000,337.000000 
	C1.000000,334.675507 1.000000,332.332489 1.000000,329.494751 
M58.152367,296.672028 
	C57.319958,296.017975 57.182224,294.536865 55.640423,294.578674 
	C54.839527,304.901093 56.016228,315.150421 56.092495,325.411530 
	C56.107327,327.406982 55.768867,330.283447 58.873676,330.421753 
	C67.066803,330.786560 75.268578,330.788086 84.552589,329.785095 
	C75.447876,318.370880 66.998077,307.777679 58.152367,296.672028 
M64.770584,44.269592 
	C71.866936,37.255749 78.963287,30.241905 86.957443,22.340693 
	C76.687233,22.340693 68.035431,22.359123 59.383808,22.328289 
	C57.098259,22.320143 55.990360,23.505033 55.829197,25.633884 
	C55.164944,34.408283 55.127300,43.178406 55.703918,51.938850 
	C56.197674,52.286926 56.691433,52.635002 57.185192,52.983078 
	C59.544056,50.241936 61.902924,47.500793 64.770584,44.269592 
M31.847214,318.349762 
	C29.731199,321.660217 27.556925,324.943573 26.511549,329.107483 
	C31.751820,331.149353 36.904224,330.344086 41.958424,330.607910 
	C45.706646,330.803558 46.868393,329.146393 46.855125,325.602234 
	C46.825386,317.657013 46.849144,309.707214 47.656227,301.777954 
	C47.834141,300.029968 48.307480,297.989929 46.844322,296.062469 
	C40.814789,302.816803 37.295410,310.800751 31.847214,318.349762 
z"/>
</svg>