<svg version="1.1" id="Layer_1" xmlns="http://www.w3.org/2000/svg" xmlns:xlink="http://www.w3.org/1999/xlink" x="0px" y="0px"
	 width="100%" viewBox="0 0 320 336" enable-background="new 0 0 320 336" xml:space="preserve">
<path fill="#000000" opacity="1.000000" stroke="none" 
	d="
M1.000000,331.499481 
	C8.272869,332.161163 13.850776,330.473053 18.538881,323.900940 
	C27.141306,311.841492 36.512039,300.329529 44.587040,287.873016 
	C46.088642,285.556641 46.787937,283.191650 46.903374,280.406769 
	C48.193977,249.271378 47.755600,218.122437 47.793278,186.976776 
	C47.837807,150.165619 46.677532,113.366241 46.409477,76.556915 
	C46.367279,70.761559 46.281441,65.052940 46.575035,59.213840 
	C47.074829,49.273808 46.067986,39.264675 45.906700,29.281145 
	C45.850231,25.785717 44.059414,25.141571 41.145588,25.190584 
	C37.720253,25.248203 33.003258,25.959463 33.282764,20.902370 
	C33.553841,15.997850 38.313286,17.279707 41.660816,17.174883 
	C42.787411,17.139606 43.959652,17.788540 45.126617,16.825062 
	C46.111107,15.623232 45.564892,14.044126 45.784813,12.600938 
	C46.207027,9.830173 47.512894,7.861964 50.575928,7.846924 
	C53.433113,7.832894 55.181992,9.815909 55.068470,12.244229 
	C54.830631,17.331747 57.607327,17.758169 61.608765,17.843195 
	C75.923096,18.147346 90.274345,18.607206 104.550323,18.436838 
	C139.029572,18.025356 173.509613,17.965717 207.987900,17.618465 
	C211.964752,17.578411 215.923508,16.653204 219.935562,17.075029 
	C222.480194,17.342573 224.589050,18.177847 224.473648,21.253906 
	C224.362808,24.208136 222.439362,25.086014 219.776245,25.279663 
	C210.509079,25.953527 210.781601,26.018526 209.880692,35.318966 
	C209.058075,43.811447 209.505951,52.294918 209.195419,60.775482 
	C209.088135,63.705700 210.048370,65.093918 212.996552,66.128433 
	C224.934891,70.317612 232.085266,82.746681 230.012115,95.009415 
	C227.944016,107.242271 215.756500,117.907661 203.795883,117.951431 
	C194.403015,117.985809 183.770599,110.994171 180.389740,102.560074 
	C176.320023,92.407509 178.847366,79.689064 186.366257,72.398064 
	C189.657928,69.206146 193.363770,66.649452 197.926147,65.818504 
	C201.119095,65.236969 202.278748,63.917263 202.137665,60.464657 
	C201.729660,50.480309 201.662170,40.476566 201.714783,30.481775 
	C201.733673,26.891621 200.999100,25.083445 196.862961,24.799265 
	C181.711365,23.758247 166.553925,24.442425 151.403107,24.253111 
	C134.241684,24.038671 117.074066,24.326412 99.912407,24.122105 
	C96.088226,24.076576 93.101974,25.243292 90.428261,27.654249 
	C79.636536,37.385433 70.359680,48.501049 60.883766,59.472027 
	C55.732964,65.435501 54.084625,71.664444 53.908592,79.414818 
	C52.781155,129.053894 53.658360,178.697556 53.161598,228.335709 
	C52.991531,245.329300 53.306835,262.327454 53.314465,279.323547 
	C53.315636,281.930603 53.908546,284.086029 55.491859,286.246277 
	C67.443130,302.552399 80.690277,317.675018 95.726036,331.221588 
	C97.027100,332.393768 98.313194,332.596161 99.812080,332.491241 
	C135.074615,330.023407 170.395523,330.789612 205.692200,330.836273 
	C231.682571,330.870605 257.673096,331.205414 283.662811,330.801392 
	C292.982056,330.656525 302.297119,330.246002 311.614502,329.971771 
	C315.870514,329.846527 318.275909,331.684204 318.046997,336.598267 
	C212.333328,337.000000 106.666664,337.000000 1.000000,336.995605 
	C1.000000,335.327118 1.000000,333.663025 1.000000,331.499481 
M76.595345,322.886902 
	C69.451111,313.998993 62.306873,305.111053 54.462807,295.352509 
	C54.536083,307.251892 53.797394,318.034973 55.070984,328.803864 
	C55.244816,330.273621 55.179615,332.195984 57.200344,332.224579 
	C65.424026,332.340973 73.650322,332.273010 82.403557,332.273010 
	C81.294365,328.078644 78.825615,325.963837 76.595345,322.886902 
M82.405083,28.050600 
	C83.172600,26.948830 85.026207,26.432568 84.318169,24.331806 
	C75.852150,24.331806 67.397896,24.336559 58.943661,24.328320 
	C56.938808,24.326366 54.958168,24.889517 54.809811,27.058434 
	C54.194874,36.048443 54.014416,45.051163 54.838257,54.018837 
	C55.389072,54.366077 55.939888,54.713314 56.490704,55.060551 
	C64.969414,46.217400 73.448128,37.374252 82.405083,28.050600 
M46.041073,310.759430 
	C46.342606,306.438660 47.397503,302.113037 46.124790,296.674683 
	C38.606556,308.503326 30.869768,318.973785 25.228178,330.813904 
	C31.208311,333.657623 36.627666,331.533447 41.847832,332.271851 
	C44.717564,332.677795 45.788277,331.468567 45.793968,328.695862 
	C45.805588,323.034027 45.954742,317.372467 46.041073,310.759430 
z"/>
</svg>