<svg version="1.1" id="Layer_1" xmlns="http://www.w3.org/2000/svg" xmlns:xlink="http://www.w3.org/1999/xlink" x="0px" y="0px"
	 width="100%" viewBox="0 0 320 336" enable-background="new 0 0 320 336" xml:space="preserve">
<path fill="#000000" opacity="1.000000" stroke="none" 
	d="
M1.000000,327.444153 
	C10.149961,328.908356 16.274551,325.013458 21.445065,317.574463 
	C29.329685,306.230652 38.232723,295.605743 45.659065,283.914032 
	C47.138592,281.584747 47.851654,279.210785 47.956806,276.429932 
	C48.945194,250.291000 48.996456,224.142441 48.822639,197.993423 
	C48.545822,156.349365 48.156387,114.706047 47.826584,73.062317 
	C47.809326,70.883095 47.839016,68.768990 46.246349,66.952408 
	C45.360744,65.942299 44.730679,64.480965 45.465683,63.231571 
	C49.979759,55.558353 47.040924,47.248680 47.432426,39.263805 
	C47.648819,34.850410 46.722294,30.318232 46.939007,25.824245 
	C47.104008,22.402639 45.734081,20.986631 42.256870,21.144567 
	C38.858845,21.298904 34.108711,22.054878 34.317135,16.991352 
	C34.519333,12.078995 39.308804,12.921448 42.621624,13.301489 
	C45.785080,13.664392 46.923119,12.773993 46.816082,9.665926 
	C46.705799,6.463284 47.941669,3.890676 51.535252,3.893918 
	C55.267551,3.897286 56.121525,6.791586 56.094990,9.818787 
	C56.067257,12.982642 57.670826,13.763476 60.465183,13.764246 
	C68.295761,13.766403 76.126465,14.002415 83.956825,13.988220 
	C124.919243,13.913960 165.881638,13.808281 206.843842,13.660280 
	C211.494720,13.643477 216.143738,13.170886 220.794861,13.146679 
	C223.279114,13.133750 225.528793,13.974708 225.472748,17.117947 
	C225.413879,20.420406 223.207397,21.138247 220.404526,21.275389 
	C211.393158,21.716297 211.712219,21.778284 210.904648,30.751877 
	C210.125488,39.409843 210.447067,48.058506 210.151337,56.706722 
	C210.053604,59.564304 210.839920,61.070908 213.876877,62.105034 
	C224.426880,65.697449 230.206284,73.714325 231.054840,84.462914 
	C231.974243,96.108566 226.714478,105.328331 216.197159,110.545647 
	C211.526917,112.862419 210.225479,115.056702 210.640686,120.345955 
	C211.313904,128.921951 210.381805,137.620056 210.197540,146.268112 
	C209.839050,163.091827 210.071060,179.898483 211.674896,196.668320 
	C212.008682,200.158539 210.955856,203.117157 207.025299,203.737411 
	C204.109894,204.197479 201.450363,200.511505 201.913025,196.529053 
	C204.090286,177.787781 203.932678,158.976837 203.635132,140.169205 
	C203.516800,132.689194 202.595856,125.225052 202.972809,117.726936 
	C203.109756,115.002632 202.129929,113.676888 199.237823,112.921516 
	C186.756622,109.661613 179.772049,100.933655 179.681885,89.057068 
	C179.577332,75.284492 186.379227,65.291000 198.755341,61.940701 
	C202.479385,60.932579 203.245529,59.406361 203.081955,55.766430 
	C202.648376,46.118317 202.617065,36.443882 202.730804,26.783514 
	C202.775681,22.972023 201.940918,21.087908 197.640381,20.795174 
	C182.323547,19.752581 167.000031,20.439304 151.683334,20.241213 
	C134.855530,20.023577 118.020676,20.341604 101.193237,20.110249 
	C96.801048,20.049858 93.491112,21.513157 90.468979,24.368658 
	C78.331955,35.836472 67.460258,48.430111 57.169125,61.553223 
	C55.130100,64.153366 55.160042,67.119049 55.084946,70.099121 
	C54.262459,102.737770 54.217510,135.383606 54.238831,168.029617 
	C54.262009,203.521011 54.341759,239.012451 54.300163,274.503754 
	C54.296265,277.828583 55.065182,280.557800 57.098606,283.254150 
	C68.859779,298.849640 81.440254,313.677948 96.159782,326.611084 
	C97.822990,328.072418 99.428070,328.738098 101.535599,328.559265 
	C118.794380,327.094604 136.094849,327.065948 153.396255,327.066376 
	C188.053848,327.067291 222.712738,326.882385 257.368469,327.134735 
	C275.038300,327.263397 292.658447,326.025482 310.312531,325.980591 
	C311.974182,325.976379 313.666260,325.930054 315.290558,326.212219 
	C317.453491,326.587952 318.847870,327.985229 319.154358,330.229218 
	C319.466583,332.515381 318.250305,334.069366 316.416412,335.140930 
	C314.779480,336.097443 312.916504,336.107727 311.066040,336.036102 
	C258.262512,333.991577 205.436996,335.768524 152.625961,335.115326 
	C135.480560,334.903259 118.339928,334.325317 101.194878,334.057800 
	C89.947701,333.882263 78.696510,333.934082 67.447128,333.937256 
	C54.558514,333.940887 41.669918,334.005280 28.781301,334.038757 
	C25.783525,334.046539 22.813168,333.976807 20.023638,335.506195 
	C19.078890,336.024170 17.555328,336.372711 16.673014,335.971069 
	C11.819912,333.761810 6.803790,335.494659 1.448640,335.034668 
	C1.000000,332.629425 1.000000,330.258881 1.000000,327.444153 
M56.488045,326.942230 
	C57.591908,329.007843 59.579826,328.583618 61.354183,328.597778 
	C67.016083,328.642914 72.680832,328.709869 78.339447,328.567841 
	C80.162437,328.522095 82.316078,329.419006 84.192558,327.076019 
	C74.882507,315.470886 65.569336,303.861877 55.360985,291.136993 
	C55.423412,303.742554 54.939159,314.958008 56.488045,326.942230 
M55.343838,46.733276 
	C55.509117,47.823837 55.033051,49.101440 56.275276,49.912994 
	C65.850929,40.017788 75.417770,30.131681 84.867622,20.366474 
	C76.530785,20.366474 67.610626,20.319721 58.691448,20.392576 
	C55.688507,20.417105 55.444508,22.721155 55.428921,24.990356 
	C55.381035,31.962341 55.365032,38.934547 55.343838,46.733276 
M47.765980,298.683258 
	C47.568520,297.031525 48.148129,295.239288 46.945763,293.107361 
	C39.417892,304.404724 31.883802,314.984863 25.993633,326.829010 
	C31.846478,329.268860 37.051212,328.344513 42.149040,328.610809 
	C45.611801,328.791687 46.811264,327.249237 46.875698,323.889893 
	C47.031631,315.760345 47.457581,307.635925 47.765980,298.683258 
z"/>
</svg>