<svg version="1.1" id="Layer_1" xmlns="http://www.w3.org/2000/svg" xmlns:xlink="http://www.w3.org/1999/xlink" x="0px" y="0px"
	 width="100%" viewBox="0 0 320 336" enable-background="new 0 0 320 336" xml:space="preserve">
<path fill="#000000" opacity="1.000000" stroke="none" 
	d="
M1.000000,330.497925 
	C10.408775,331.921173 16.446312,327.713745 21.720697,320.108246 
	C29.496187,308.896210 38.286743,298.392944 45.669857,286.873383 
	C47.163185,284.543427 47.838699,282.165527 47.948387,279.387726 
	C49.171360,248.415634 48.944469,217.429703 48.801571,186.448776 
	C48.631756,149.633667 48.397209,112.815048 47.605114,76.010567 
	C47.479664,70.181526 46.895985,64.557800 47.456547,58.580921 
	C48.397369,48.549667 47.109596,38.319214 46.949924,28.169580 
	C46.894215,24.628328 44.971840,24.110287 42.111832,24.150629 
	C38.691578,24.198872 34.030827,24.959663 34.341160,19.805994 
	C34.614437,15.267724 39.139267,15.844543 42.325222,16.225645 
	C45.561558,16.612776 47.017609,15.995914 46.843731,12.470423 
	C46.696701,9.489222 48.038269,7.082763 51.312565,6.938112 
	C55.060383,6.772542 56.142540,9.588668 56.096207,12.624893 
	C56.042870,16.120047 57.841534,16.782948 60.782188,16.785200 
	C70.446617,16.792604 80.111122,17.019003 89.775291,17.000566 
	C128.739960,16.926239 167.704590,16.810440 206.669006,16.654585 
	C211.320007,16.635979 215.968506,16.167786 220.620392,16.118843 
	C223.400513,16.089590 225.608093,17.162418 225.396545,20.509253 
	C225.203568,23.562447 223.053818,24.133986 220.486725,24.271109 
	C211.490601,24.751638 211.756668,24.804377 210.873581,34.114746 
	C210.068146,42.606651 210.462357,51.092873 210.149918,59.575497 
	C210.046707,62.378162 210.627594,64.098122 213.761276,65.069221 
	C223.680939,68.143219 229.168167,75.700584 230.897751,85.366638 
	C232.779526,95.883430 228.470535,104.821823 220.089142,111.190865 
	C216.207443,114.140587 216.581009,115.816597 219.557129,118.828186 
	C227.753540,127.122177 235.745178,135.617828 244.677032,143.151657 
	C245.821075,144.116638 246.830475,145.239456 247.932785,146.256027 
	C249.837692,148.012787 250.160034,150.333801 248.574173,152.028885 
	C246.898590,153.819870 244.890472,152.583725 243.364792,151.051147 
	C239.367691,147.035965 235.482101,142.902924 231.361450,139.019089 
	C225.121521,133.137741 218.720123,127.427696 211.470169,120.807343 
	C210.975357,124.875542 210.373993,127.603889 210.353546,130.336578 
	C210.181763,153.316849 209.358170,176.311920 211.574753,199.250137 
	C211.845093,202.047729 211.525208,204.604416 208.792587,206.182404 
	C207.363327,207.007751 205.878220,207.051376 204.574921,206.015533 
	C202.272400,204.185547 201.751266,201.721878 202.019928,198.865494 
	C204.034058,177.452759 204.420273,156.012161 203.109695,134.536667 
	C202.836075,130.053131 202.905136,125.539711 203.015152,121.044937 
	C203.086594,118.126846 202.153671,116.666000 199.089493,115.806435 
	C185.902481,112.107178 179.664871,103.885101 179.683441,90.863686 
	C179.701950,77.883553 186.839554,68.272537 199.432953,64.773026 
	C202.431808,63.939697 203.262207,62.752995 203.132568,59.609554 
	C202.727692,49.791370 202.557999,39.949429 202.763092,30.126421 
	C202.857635,25.598705 201.300842,23.633028 196.850281,23.682638 
	C194.693634,23.706680 192.534134,23.342611 190.375458,23.337240 
	C161.045212,23.264254 131.713745,23.341883 102.385643,23.062017 
	C97.291855,23.013409 93.402428,24.516994 89.857162,27.890913 
	C77.878670,39.290466 67.114883,51.759563 56.979671,64.800133 
	C54.819160,67.579979 55.160934,70.773682 55.080299,73.889290 
	C54.054390,113.528961 54.247601,153.178055 54.243591,192.825195 
	C54.240730,221.152939 54.350693,249.480743 54.296909,277.808319 
	C54.290874,280.987793 55.195759,283.478882 57.060528,286.044586 
	C68.660530,302.004730 81.723793,316.615753 96.362709,329.848816 
	C98.080414,331.401520 99.754143,331.697723 101.790985,331.565430 
	C138.228424,329.198242 174.714706,329.997009 211.186264,329.916107 
	C240.667450,329.850708 270.155762,330.776672 299.624084,329.091064 
	C303.942749,328.844025 308.290314,328.955475 312.619537,329.077362 
	C317.894318,329.225830 319.134460,330.669617 319.051819,336.582703 
	C213.000000,337.000000 107.000000,337.000000 1.000000,336.993286 
	C1.000000,334.989685 1.000000,332.992737 1.000000,330.497925 
M82.456772,331.136719 
	C85.261429,329.409271 82.531746,328.313751 81.814720,327.385986 
	C76.333954,320.294312 70.704430,313.317535 65.117348,306.308075 
	C62.166492,302.605988 59.207954,298.910034 55.295586,294.013092 
	C55.524204,306.209229 54.862888,316.902313 55.982189,327.602051 
	C56.277863,330.428497 57.437687,331.746582 60.394855,331.659058 
	C67.524872,331.447876 74.659737,331.400574 82.456772,331.136719 
M55.496853,26.255779 
	C55.496853,35.146740 55.496853,44.037701 55.496853,53.541767 
	C65.736015,42.972713 75.327805,33.071884 84.689262,23.408817 
	C76.466957,23.408817 67.383530,23.395357 58.300240,23.423925 
	C56.999538,23.428017 56.179577,24.252588 55.496853,26.255779 
M44.296768,299.936157 
	C38.171856,309.820526 30.958361,319.088593 26.139528,330.060059 
	C32.580486,332.339844 38.270325,331.525146 43.877235,331.533447 
	C46.667656,331.537598 46.746162,329.282166 46.784897,327.210876 
	C46.896877,321.223358 46.868557,315.229156 47.159760,309.250427 
	C47.362827,305.081207 48.261276,300.930023 47.259380,296.104401 
	C46.092999,297.572327 45.375969,298.474731 44.296768,299.936157 
z"/>
</svg>