<svg version="1.1" id="Layer_1" xmlns="http://www.w3.org/2000/svg" xmlns:xlink="http://www.w3.org/1999/xlink" x="0px" y="0px"
	 width="100%" viewBox="0 0 320 336" enable-background="new 0 0 320 336" xml:space="preserve">
<path fill="#000000" opacity="1.000000" stroke="none" 
	d="
M1.000000,330.497925 
	C10.408009,331.921021 16.443783,327.713043 21.717550,320.108368 
	C29.491886,308.897858 38.282368,298.396820 45.665436,286.879517 
	C47.158211,284.550842 47.839283,282.174713 47.948402,279.396301 
	C49.177761,248.095276 48.942757,216.780411 48.799984,185.470627 
	C48.633652,148.993927 48.442989,112.512001 47.562714,76.049240 
	C47.417725,70.043488 47.014099,64.223785 47.502312,58.128571 
	C48.294632,48.236721 47.104198,38.194996 46.948586,28.213453 
	C46.893894,24.705061 45.048176,24.105036 42.152298,24.150576 
	C38.741482,24.204214 33.998154,24.984623 34.347328,19.861963 
	C34.676014,15.039877 39.391930,16.212963 42.767441,16.175920 
	C43.739937,16.165247 44.714115,16.307842 45.465664,16.363684 
	C47.348583,14.916984 46.573589,13.094778 46.828217,11.529255 
	C47.245583,8.963223 48.497574,7.127804 51.247082,6.902731 
	C54.159004,6.664363 56.007648,8.666174 55.885944,11.057507 
	C55.589382,16.884497 59.105190,16.750072 63.214924,16.856415 
	C77.027184,17.213814 90.879585,17.596529 104.652290,17.433342 
	C139.628891,17.018930 174.607544,17.041344 209.581772,16.575214 
	C213.386139,16.524511 217.188843,15.746365 221.029648,16.104050 
	C223.659378,16.348949 225.560928,17.384098 225.408051,20.410997 
	C225.254349,23.454863 223.193100,24.118895 220.596436,24.274323 
	C211.467346,24.820753 211.747345,24.876974 210.884338,34.016289 
	C210.066879,42.673409 210.429565,51.323212 210.171921,59.973186 
	C210.102371,62.308102 210.414612,64.044594 213.206955,64.857277 
	C223.416000,67.828522 229.133743,75.416519 230.880783,85.255096 
	C232.852097,96.356560 228.072388,105.371811 219.086227,112.115723 
	C218.303680,112.703003 217.577347,113.365189 216.267578,114.457275 
	C220.092957,120.029297 225.027939,124.438255 229.659622,129.052597 
	C234.846481,134.220016 240.335831,139.083603 245.687653,144.085724 
	C247.983887,146.231934 251.489014,148.803452 248.575851,151.842499 
	C245.590393,154.956970 243.340591,150.976456 241.401886,148.995880 
	C232.889572,140.299622 223.959610,132.050705 214.935257,123.898468 
	C214.087250,123.132416 213.321030,122.204529 211.586349,122.109268 
	C210.713821,125.041924 210.326660,128.080444 210.314056,131.175247 
	C210.221161,153.985458 209.382645,176.807907 211.597260,199.578644 
	C212.016434,203.888535 209.697235,206.980255 206.575546,206.797638 
	C203.679703,206.628235 201.619812,203.008759 201.998260,199.038208 
	C204.054672,177.462952 204.425003,155.861618 203.067612,134.224060 
	C202.798904,129.940750 203.028870,125.626160 201.836838,120.614601 
	C197.204742,124.691856 192.446014,128.635605 187.971512,132.879044 
	C181.928802,138.609726 176.117767,144.584152 170.178192,150.424408 
	C168.512207,152.062546 166.448776,154.269653 164.288513,151.956818 
	C162.244888,149.768860 163.663269,147.456192 165.720612,145.512314 
	C174.070969,137.622498 182.345215,129.651566 190.597244,121.658630 
	C192.370056,119.941483 194.099945,118.128418 195.192902,115.596024 
	C194.334717,114.898544 193.657425,114.151001 192.820694,113.697853 
	C181.786789,107.722046 178.166443,97.943176 179.949844,86.297684 
	C181.688904,74.941963 188.516663,67.404419 199.970703,64.603386 
	C202.188004,64.061157 203.242722,63.189480 203.154160,60.530708 
	C202.810349,50.209583 202.675507,39.876915 202.723923,29.549768 
	C202.741135,25.877588 201.710678,23.837107 197.752823,23.822258 
	C195.264526,23.812923 192.777817,23.351873 190.289688,23.344812 
	C160.796829,23.261093 131.303284,23.304264 101.811554,23.088133 
	C97.511200,23.056616 94.016159,24.109432 90.937729,26.963322 
	C78.316330,38.664124 67.162003,51.677895 56.658520,65.271820 
	C54.775345,67.709091 55.162037,70.667496 55.088539,73.461380 
	C54.159931,108.763260 54.233292,144.073914 54.243908,179.383514 
	C54.253731,212.039734 54.359535,244.696060 54.283726,277.352020 
	C54.275482,280.903290 55.305008,283.646271 57.378090,286.484833 
	C68.914261,302.280823 81.865440,316.767731 96.401901,329.857788 
	C97.763168,331.083588 99.057892,331.709686 100.827492,331.610107 
	C159.088837,328.331665 217.399673,330.594330 275.685791,330.070496 
	C288.006897,329.959778 300.288208,328.498749 312.624847,329.055023 
	C317.896332,329.292664 319.136963,330.669342 319.052246,336.582703 
	C213.000000,337.000000 107.000000,337.000000 1.000000,336.993286 
	C1.000000,334.989685 1.000000,332.992737 1.000000,330.497925 
M55.378723,296.256317 
	C55.443020,306.055145 55.423542,315.855591 55.613167,325.652008 
	C55.688221,329.529449 56.964115,332.190247 61.900814,331.742645 
	C67.174019,331.264496 72.524132,331.671082 77.839554,331.603668 
	C79.881950,331.577759 82.072891,331.828705 84.033775,330.005127 
	C77.324303,321.589752 70.952827,313.300659 64.228775,305.308197 
	C61.462078,302.019623 59.752975,297.710205 55.378723,296.256317 
M82.629608,23.169182 
	C75.140999,23.221186 67.651283,23.368902 60.164272,23.282339 
	C56.736156,23.242704 55.347679,24.661514 55.381474,28.030279 
	C55.449905,34.852615 55.304066,41.677124 55.375225,48.499390 
	C55.390854,49.997803 54.651901,51.821266 56.625031,53.137951 
	C66.127792,43.216938 75.606949,33.320580 85.230408,23.273561 
	C85.083855,23.022398 84.160294,23.323002 82.629608,23.169182 
M47.729630,298.077911 
	C45.995869,295.084717 45.468861,298.390015 45.183472,298.830566 
	C39.400612,307.756989 33.738926,316.762299 28.105705,325.784760 
	C27.337448,327.015198 26.459156,328.309113 26.910881,330.196411 
	C31.870537,332.443146 37.241234,331.297180 42.457283,331.633820 
	C45.780018,331.848267 46.761604,330.199951 46.828682,327.134338 
	C47.035835,317.666168 47.423199,308.201965 47.729630,298.077911 
z"/>
</svg>