<svg version="1.1" id="Layer_1" xmlns="http://www.w3.org/2000/svg" xmlns:xlink="http://www.w3.org/1999/xlink" x="0px" y="0px"
	 width="100%" viewBox="0 0 320 336" enable-background="new 0 0 320 336" xml:space="preserve">
<path fill="#000000" opacity="1.000000" stroke="none" 
	d="
M1.000000,327.444153 
	C11.148750,329.109436 17.914875,324.852234 23.347269,316.360626 
	C28.540443,308.242950 34.441704,300.502380 40.690445,293.156403 
	C47.489342,285.163757 49.627583,276.042877 49.623585,265.974426 
	C49.604206,217.152374 49.968758,168.326813 49.456909,119.510269 
	C49.292900,103.868279 49.565968,88.181969 48.583054,72.577454 
	C48.233990,67.035797 47.939774,61.817596 48.447365,56.185436 
	C49.381298,45.822811 48.109440,35.268017 47.885422,24.790571 
	C47.813328,21.418959 45.770954,21.155449 43.214710,21.161474 
	C39.787544,21.169556 35.063099,21.957558 35.333237,16.900496 
	C35.596680,11.968596 40.377575,13.318290 43.713516,13.224077 
	C44.839237,13.192286 46.016590,13.837369 47.179920,12.779492 
	C48.109386,11.595879 47.586769,10.021915 47.798443,8.574990 
	C48.208511,5.771909 49.593750,3.870977 52.629486,3.865142 
	C55.515301,3.859595 57.193920,5.928499 57.024326,8.336450 
	C56.656124,13.564299 59.599056,13.762789 63.519962,13.848145 
	C77.835876,14.159792 92.188049,14.626221 106.466431,14.444894 
	C141.115372,14.004874 175.765228,14.009145 210.412277,13.606550 
	C214.221909,13.562284 218.022293,12.726694 221.865479,13.088384 
	C224.399918,13.326905 226.559692,14.125355 226.474533,17.200811 
	C226.393112,20.141476 224.464462,21.056097 221.801697,21.263186 
	C212.512039,21.985655 212.736359,22.043303 211.848923,31.294409 
	C211.018402,39.952087 211.474808,48.607491 211.193527,57.258881 
	C211.113403,59.723080 211.767441,61.139603 214.454575,61.941551 
	C224.443451,64.922653 229.974167,72.490974 231.812912,82.078705 
	C233.860352,92.754578 229.357513,101.604210 220.998978,108.450562 
	C219.858170,109.384995 218.347809,109.908676 217.374985,112.223824 
	C221.496460,116.634232 225.715271,121.482399 230.293106,125.963821 
	C236.121506,131.669510 242.243576,137.075043 248.231369,142.618256 
	C249.328888,143.634277 250.412689,144.605530 250.436798,146.343979 
	C250.479034,149.388657 248.555359,150.743546 245.933365,149.175110 
	C244.539078,148.341080 243.414139,147.019608 242.258163,145.830170 
	C232.760620,136.057693 222.865250,126.719772 211.824402,117.472633 
	C210.973297,143.566040 210.376068,168.939270 212.380951,194.304474 
	C212.606308,197.155396 213.754303,199.677460 215.102097,202.242294 
	C223.954300,219.087875 234.949097,234.619019 244.688324,250.916199 
	C246.049194,253.193481 247.233582,255.589218 248.330292,258.006958 
	C249.119751,259.747375 249.500305,261.701324 247.332108,262.780670 
	C245.263779,263.810364 243.313065,263.202454 242.087189,261.292816 
	C239.209381,256.809814 236.365158,252.297729 233.709930,247.680878 
	C226.072464,234.400909 219.380630,220.570831 210.556137,207.982727 
	C210.460510,207.846313 210.403458,207.656540 210.275360,207.572968 
	C199.795227,200.735672 203.696243,190.381546 204.145203,181.133148 
	C204.953659,164.479370 205.074539,147.856873 204.151047,131.212250 
	C203.903305,126.746971 204.113556,122.256287 204.113556,116.314430 
	C198.976898,120.830482 194.723831,124.335655 190.740677,128.124588 
	C184.222488,134.324982 177.898438,140.729004 171.451157,147.004654 
	C169.698166,148.710968 167.555679,151.275970 165.204651,148.805313 
	C163.119949,146.614532 164.881256,144.228745 166.921906,142.414078 
	C175.638275,134.662933 184.101486,126.643921 192.164871,118.211815 
	C193.754486,116.549500 195.650253,115.069069 196.147858,112.674271 
	C195.733093,111.311852 194.509003,110.999817 193.535904,110.418182 
	C183.514420,104.428246 178.979416,95.244354 180.909180,83.351578 
	C182.660156,72.560730 188.972244,65.129311 199.513046,62.007488 
	C203.095840,60.946388 204.244049,59.686264 204.078369,55.909542 
	C203.647736,46.093227 203.633682,36.252129 203.717224,26.423159 
	C203.748169,22.780800 202.868973,21.047604 198.809555,20.777443 
	C183.157227,19.735750 167.497498,20.441782 151.844711,20.238434 
	C135.515518,20.026299 119.178284,20.375511 102.851151,20.095383 
	C98.102081,20.013901 94.484673,21.540825 91.218239,24.618710 
	C79.062790,36.072487 68.163597,48.644211 57.965519,61.849926 
	C56.056023,64.322578 56.159725,67.137733 56.077106,69.944145 
	C55.229008,98.752998 55.267601,127.570892 55.268528,156.387711 
	C55.269791,195.713867 55.361649,235.040115 55.276283,274.366028 
	C55.268158,278.108307 56.399551,280.975555 58.591877,283.930481 
	C70.142960,299.499542 82.886314,313.957123 97.354294,326.890106 
	C98.734955,328.124268 100.039116,328.694641 101.790817,328.598541 
	C155.065323,325.675903 208.384125,327.320740 261.684204,327.103271 
	C277.680908,327.037994 293.664093,326.731262 309.642059,326.009033 
	C310.806274,325.956421 311.975464,325.976288 313.141296,326.004974 
	C316.466431,326.086792 319.974365,326.444641 320.019684,330.719177 
	C320.066376,335.126099 316.624634,336.093231 313.014252,335.961792 
	C255.039993,333.851562 197.039169,336.098236 139.065018,334.859070 
	C123.927315,334.535553 108.782928,334.620575 93.687096,334.237305 
	C83.245399,333.972198 72.761078,333.865082 62.361324,334.119385 
	C50.816040,334.401703 39.299812,333.492371 27.775066,334.054016 
	C25.949884,334.142975 24.065779,333.948181 22.408781,334.921844 
	C19.876936,336.409637 17.473022,336.012482 14.763883,335.147827 
	C10.572392,333.810150 6.202884,335.552521 1.454223,335.034210 
	C1.000000,332.629425 1.000000,330.258881 1.000000,327.444153 
M72.347359,311.126648 
	C67.206291,304.635223 62.065231,298.143829 56.305401,290.871124 
	C56.305401,295.576935 56.170380,299.063293 56.333237,302.535645 
	C56.682503,309.982422 55.703011,317.468628 57.017773,324.884735 
	C57.312428,326.546753 57.489792,328.470978 59.672077,328.495270 
	C68.055511,328.588562 76.440605,328.533081 85.561623,328.533081 
	C81.791626,321.732239 76.951912,316.960236 72.347359,311.126648 
M83.473061,25.042301 
	C84.481812,23.622704 86.452812,22.888891 86.625526,20.363417 
	C77.588188,20.363417 68.662132,20.355940 59.736115,20.369930 
	C58.018570,20.372622 56.647720,21.216787 56.610653,22.944038 
	C56.416870,31.973919 55.856987,41.024593 56.929390,50.016922 
	C57.534492,50.434704 58.139595,50.852489 58.744694,51.270275 
	C66.824745,42.690952 74.904785,34.111633 83.473061,25.042301 
M34.919388,328.589020 
	C37.574921,328.590668 40.240288,328.448334 42.883602,328.628876 
	C46.548656,328.879242 47.904896,327.307556 47.885323,323.689850 
	C47.859344,318.888489 48.494175,314.080536 48.407715,309.283295 
	C48.313656,304.064575 49.516243,298.822235 48.213535,292.512878 
	C40.514191,304.220245 32.882156,314.839661 27.032377,326.700562 
	C29.767616,328.178375 31.928740,328.265411 34.919388,328.589020 
z"/>
</svg>