<svg version="1.1" id="Layer_1" xmlns="http://www.w3.org/2000/svg" xmlns:xlink="http://www.w3.org/1999/xlink" x="0px" y="0px"
	 width="100%" viewBox="0 0 320 336" enable-background="new 0 0 320 336" xml:space="preserve">
<path fill="#000000" opacity="1.000000" stroke="none" 
	d="
M1.000000,329.494751 
	C10.600903,331.636230 16.964922,327.705811 22.263859,319.708527 
	C28.233957,310.698334 34.838440,302.057617 41.737553,293.728821 
	C48.009464,286.157227 49.591042,277.512238 49.595058,268.206787 
	C49.616211,219.225555 49.961536,170.240952 49.456955,121.265106 
	C49.297546,105.792259 49.118347,90.303123 48.824917,74.823639 
	C48.793705,73.177124 49.128609,71.396805 47.994850,69.996887 
	C45.868710,67.371620 46.205795,64.939697 47.963585,62.232655 
	C49.502216,59.863121 48.800560,57.034264 48.734730,54.406548 
	C48.518200,45.763351 48.028606,37.124367 47.961552,28.481298 
	C47.932896,24.787306 47.031742,22.800226 42.911564,23.112951 
	C39.608562,23.363653 35.180252,23.746826 35.310951,19.088978 
	C35.451424,14.083007 40.132172,15.234222 43.500435,15.172103 
	C44.637329,15.151136 45.794052,15.800268 47.078968,14.896001 
	C48.240253,13.667849 47.537380,11.879613 47.850239,10.293403 
	C48.355629,7.731102 49.721893,5.963434 52.470661,5.882606 
	C55.332623,5.798450 57.103821,7.756425 56.979202,10.221108 
	C56.697437,15.793951 60.080933,15.765532 64.048508,15.858929 
	C78.195732,16.191952 92.379562,16.627996 106.489876,16.450508 
	C141.134979,16.014717 175.781479,16.037346 210.424438,15.605465 
	C214.233246,15.557982 218.031494,14.702052 221.874451,15.087751 
	C224.401199,15.341349 226.549347,16.124075 226.446518,19.224127 
	C226.348206,22.188652 224.416748,23.069248 221.765274,23.270418 
	C212.548370,23.969707 212.780350,24.026413 211.853180,33.324436 
	C210.990005,41.980598 211.491257,50.634617 211.189423,59.283764 
	C211.116180,61.382641 211.154572,63.059799 213.857864,63.800358 
	C224.581223,66.738007 230.359024,74.647842 231.869705,84.936836 
	C233.564590,96.480431 228.482788,105.645584 218.586411,111.983246 
	C218.049881,112.326836 217.561356,112.745377 216.579834,113.482460 
	C225.320526,122.917862 234.127701,131.902374 243.469482,140.366898 
	C244.950470,141.708817 246.436569,143.046997 247.962448,144.337082 
	C250.233978,146.257584 251.798203,148.828293 249.435760,151.126801 
	C247.260635,153.243057 245.215332,150.909439 243.589279,149.204910 
	C234.957764,140.156677 225.753677,131.710602 216.439011,123.381485 
	C215.201538,122.274948 213.881683,121.260544 212.084366,119.778244 
	C210.813690,134.743713 211.210831,149.263229 211.110611,163.761261 
	C211.061111,170.921005 211.750519,178.101715 211.413681,185.240280 
	C210.738892,199.540894 218.389404,210.589508 225.192627,221.942947 
	C232.040222,233.370453 239.383865,244.500046 246.293686,255.891479 
	C247.860855,258.475098 251.268723,262.104095 247.299973,264.528381 
	C243.033615,267.134460 241.475967,262.411102 239.689407,259.584015 
	C228.665558,242.139893 220.300247,223.114670 207.610367,205.765915 
	C204.536728,210.670258 201.495163,215.298874 198.679031,220.060791 
	C191.473846,232.244324 183.003983,243.650299 176.553406,256.303101 
	C174.815979,259.711060 174.441498,259.618134 169.506439,258.758118 
	C168.978027,256.696136 170.401611,255.351593 171.382996,253.883469 
	C182.596710,237.107956 190.959274,218.669769 201.795120,201.667343 
	C202.979187,199.809418 203.441116,197.258575 203.563095,194.992767 
	C204.682159,174.207474 205.588837,153.417908 204.107971,132.601746 
	C203.803116,128.316437 204.063782,123.990891 204.063782,118.307014 
	C198.576035,123.190002 193.952667,127.085754 189.581116,131.246109 
	C183.427704,137.102295 177.470245,143.164062 171.408554,149.117096 
	C169.738831,150.756897 167.573044,153.077545 165.482040,151.103439 
	C163.060577,148.817337 164.837692,146.283722 167.013245,144.334869 
	C175.823853,136.442398 184.432709,128.336823 192.569138,119.744698 
	C194.022217,118.210236 195.861557,116.880013 196.102325,114.560448 
	C195.574219,113.277840 194.392166,112.908424 193.397751,112.357544 
	C182.574951,106.362053 179.244431,96.612503 180.982742,85.213081 
	C182.684418,74.053741 189.455582,66.624359 200.607574,63.705437 
	C202.954178,63.091240 204.321793,62.469971 204.210190,59.472965 
	C203.819672,48.987896 203.683212,38.488354 203.718170,27.995203 
	C203.730133,24.400068 202.534164,23.026676 198.889603,22.778843 
	C183.241135,21.714737 167.581223,22.458490 151.929703,22.244967 
	C135.603073,22.022230 119.268867,22.338970 102.942940,22.091639 
	C98.445831,22.023506 94.857994,23.224943 91.659294,26.203333 
	C79.186790,37.816769 68.112831,50.675766 57.730072,64.156281 
	C55.953938,66.462341 56.144436,69.177177 56.069099,71.817268 
	C55.247105,100.622253 55.263565,129.435715 55.267670,158.248428 
	C55.273270,197.568466 55.356087,236.888550 55.285114,276.208405 
	C55.278435,279.908905 56.245918,282.846619 58.489643,285.808685 
	C70.082878,301.113403 82.462791,315.670776 96.850945,328.468781 
	C98.684593,330.099762 100.354675,330.688293 102.619934,330.560730 
	C139.724625,328.471619 176.862000,328.806946 214.000443,329.011261 
	C245.479874,329.184479 276.963654,329.473511 308.426178,327.964569 
	C310.088715,327.884827 311.759644,327.902039 313.424103,327.954895 
	C319.527039,328.148712 320.895721,330.117798 319.120697,336.629120 
	C257.979095,337.000000 196.958206,337.000000 135.098557,336.824890 
	C123.124245,335.780273 111.964531,336.180664 100.815559,336.019562 
	C98.823257,335.990753 96.795372,335.826752 95.000000,337.000000 
	C94.555557,337.000000 94.111107,337.000000 92.967468,336.805054 
	C80.424644,335.150269 68.534683,336.185486 56.667637,335.995667 
	C56.117252,335.986877 55.556122,336.649872 55.000000,337.000000 
	C53.611111,337.000000 52.222221,337.000000 50.164703,336.779724 
	C40.643856,335.492004 31.808266,335.424316 23.000000,337.000000 
	C15.788343,337.000000 8.576687,337.000000 1.000000,337.000000 
	C1.000000,334.675812 1.000000,332.332642 1.000000,329.494751 
M72.318192,313.151001 
	C67.322868,306.835999 62.327553,300.520966 57.332233,294.205933 
	C56.720596,305.414215 55.643749,316.283508 57.056454,327.145081 
	C57.283577,328.891327 57.571907,330.559296 59.814735,330.566956 
	C68.211166,330.595673 76.607765,330.578461 85.872353,330.578461 
	C81.477463,324.059265 77.189491,318.831024 72.318192,313.151001 
M82.491150,28.020750 
	C83.901360,26.313597 86.072754,25.181568 86.972839,22.356506 
	C77.580185,22.356506 68.660988,22.348530 59.741825,22.362617 
	C57.737049,22.365784 56.540154,23.513336 56.523636,25.421747 
	C56.446674,34.314793 56.489525,43.208874 56.489525,53.461586 
	C65.690277,44.460938 73.841721,36.486774 82.491150,28.020750 
M48.795200,300.667053 
	C48.718288,298.934875 48.641376,297.202698 48.498188,293.977844 
	C40.527714,306.266968 32.951706,316.956512 26.869072,328.862091 
	C32.902885,331.275726 38.105824,330.327667 43.200684,330.638519 
	C46.760647,330.855713 47.847450,329.219604 47.842533,325.911591 
	C47.830433,317.773041 47.878918,309.628448 48.795200,300.667053 
z"/>
</svg>